# xmcd
#
# Track frame offsets:
#	150
#	16985
#	31125
#	50585
#	67242
#	87277
#	104845
#	124280
#	140992
#	157090
#
# Disc length: 2345 seconds
#
# Revision: 1
# Processed by: cddbd v1.5PL3 Copyright (c) Steve Scherf et al.
# Submitted via: dBpowerAMP V4.0
#
DISCID=9809270a
DTITLE=McGuffey Lane - Call Me Lucky
DYEAR=2002
DGENRE=Country
TTITLE0=Kid With The Arrow
TTITLE1=The Good In Goodbye
TTITLE2=There's Only One Of Us Now
TTITLE3=When I sing You
TTITLE4=What You've Got
TTITLE5=Trains Make Me Lonesome
TTITLE6=Call Me Lucky
TTITLE7=Baby Don't Call Me Baby (Anymore)
TTITLE8=Into The Mystic
TTITLE9=The Good Times Tonight
EXTD=
EXTT0=
EXTT1=
EXTT2=
EXTT3=
EXTT4=
EXTT5=
EXTT6=
EXTT7=
EXTT8=
EXTT9=
PLAYORDER=
